# File created by Blade
# Date/Time:  Tue Sep 30 19:31:19 2014
#---------------------------------------------------------
:version 1.10
:name HOM
:units
  mass 1.0
  length 1.000000
  angle deg
:documentation
     Acclaim Skeleton File
:root
   axis xyz
   order TX TY TZ RX RY RZ
   position 0.000000 0.000000 0.000000
   orientation 0 0 0
:bonedata
   begin
      id 1
      name Spine_dum
      direction 0.000000 1.000000 0.000000
      length 3.241213
      axis 0.0 0.0 0.0 xyz
   end
   begin
      id 2
      name LeftUpLeg_dum
      direction 1.000000 0.000000 0.000000
      length 3.434019
      axis 0.0 0.0 0.0 xyz
   end
   begin
      id 3
      name RightUpLeg_dum
      direction -1.000000 0.000000 0.000000
      length 3.434019
      axis 0.0 0.0 0.0 xyz
   end
   begin
      id 4
      name Spine
      direction 0.000000 1.000000 0.000000
      length 0.000000
      axis 0.0 0.0 0.0 xyz
      dof rx ry rz
   end
   begin
      id 5
      name Spine_dum1
      direction 0.000000 1.000000 0.000000
      length 18.382958
      axis 0.0 0.0 0.0 xyz
   end
   begin
      id 6
      name Spine_dum2
      direction 0.000000 1.000000 0.000000
      length 12.828261
      axis 0.0 0.0 0.0 xyz
   end
   begin
      id 7
      name Spine_dum3
      direction 0.000000 1.000000 0.000000
      length 12.828261
      axis 0.0 0.0 0.0 xyz
   end
   begin
      id 8
      name Head
      direction 0.000000 1.000000 0.000000
      length 4.527550
      axis 0.0 0.0 0.0 xyz
      dof rx ry rz
   end
   begin
      id 9
      name LeftShoulder
      direction 1.000000 0.000000 0.000000
      length 7.748055
      axis 0.0 0.0 -90.0 xyz
      dof rx ry rz
   end
   begin
      id 10
      name LeftArm
      direction 1.000000 0.000000 0.000000
      length 10.635614
      axis 0.0 0.0 -90.0 xyz
      dof rx ry rz
   end
   begin
      id 11
      name LeftForeArm
      direction 1.000000 0.000000 0.000000
      length 8.346755
      axis 0.0 0.0 -90.0 xyz
      dof ry rz rx
   end
   begin
      id 12
      name LeftHand
      direction 0.000000 0.000000 0.000000
      length 0.000000
      axis 0.0 0.0 -90.0 xyz
      dof rx ry rz
   end
   begin
      id 13
      name LeftHand_dum1
      direction 0.000000 0.000000 0.000000
      length 0.000000
      axis 0.0 0.0 -90.0 xyz
   end
   begin
      id 14
      name LeftHand_dum2
      direction 1.000000 0.000000 0.000000
      length 3.937000
      axis 0.0 0.0 -90.0 xyz
   end
   begin
      id 15
      name LeftHandThumb1
      direction 0.000000 0.000000 1.000000
      length 3.937000
      axis 0.0 0.0 -90.0 xyz
      dof rx rz ry
   end
   begin
      id 16
      name RightShoulder
      direction -1.000000 0.000000 0.000000
      length 7.748055
      axis 0.0 0.0 90.0 xyz
      dof rx ry rz
   end
   begin
      id 17
      name RightArm
      direction -1.000000 0.000000 0.000000
      length 10.635614
      axis 0.0 0.0 90.0 xyz
      dof rx ry rz
   end
   begin
      id 18
      name RightForeArm
      direction -1.000000 0.000000 0.000000
      length 8.346755
      axis 0.0 0.0 90.0 xyz
      dof ry rz rx
   end
   begin
      id 19
      name RightHand
      direction 0.000000 0.000000 0.000000
      length 0.000000
      axis 0.0 0.0 90.0 xyz
      dof rx ry rz
   end
   begin
      id 20
      name RightHand_dum1
      direction 0.000000 0.000000 0.000000
      length 0.000000
      axis 0.0 0.0 90.0 xyz
   end
   begin
      id 21
      name RightHand_dum2
      direction -1.000000 0.000000 0.000000
      length 3.937000
      axis 0.0 0.0 90.0 xyz
   end
   begin
      id 22
      name RightHandThumb1
      direction 0.000000 0.000000 1.000000
      length 3.937000
      axis 0.0 0.0 90.0 xyz
      dof rx rz ry
   end
   begin
      id 23
      name LeftUpLeg
      direction 0.000000 -1.000000 0.000000
      length 15.713025
      axis 0.0 0.0 0.0 xyz
      dof rx ry rz
   end
   begin
      id 24
      name LeftLeg
      direction 0.000000 -1.000000 0.000000
      length 14.435119
      axis 0.0 0.0 0.0 xyz
      dof rx ry rz
   end
   begin
      id 25
      name LeftFoot
      direction 0.000000 -0.258819 0.965926
      length 4.938895
      axis 15.0 0.0 0.0 xyz
      dof rx ry rz
   end
   begin
      id 26
      name LeftToeBase
      direction 0.000000 0.000000 1.000000
      length 2.952750
      axis 0.0 0.0 0.0 xyz
      dof rx ry rz
   end
   begin
      id 27
      name RightUpLeg
      direction 0.000000 -1.000000 0.000000
      length 15.713025
      axis 0.0 0.0 0.0 xyz
      dof rx ry rz
   end
   begin
      id 28
      name RightLeg
      direction 0.000000 -1.000000 0.000000
      length 14.435119
      axis 0.0 0.0 0.0 xyz
      dof rx ry rz
   end
   begin
      id 29
      name RightFoot
      direction 0.000000 -0.258819 0.965926
      length 4.938895
      axis 15.0 0.0 0.0 xyz
      dof rx ry rz
   end
   begin
      id 30
      name RightToeBase
      direction 0.000000 0.000000 1.000000
      length 2.952750
      axis 0.0 0.0 0.0 xyz
      dof rx ry rz
   end
:hierarchy
   begin
      root Spine_dum LeftUpLeg_dum RightUpLeg_dum
      Spine_dum Spine
      LeftUpLeg_dum LeftUpLeg
      RightUpLeg_dum RightUpLeg
      Spine Spine_dum1 Spine_dum2 Spine_dum3
      Spine_dum1 Head
      Spine_dum2 LeftShoulder
      Spine_dum3 RightShoulder
      LeftShoulder LeftArm
      LeftArm LeftForeArm
      LeftForeArm LeftHand
      LeftHand LeftHand_dum1 LeftHand_dum2
      LeftHand_dum1 LeftHandThumb1
      RightShoulder RightArm
      RightArm RightForeArm
      RightForeArm RightHand
      RightHand RightHand_dum1 RightHand_dum2
      RightHand_dum1 RightHandThumb1
      LeftUpLeg LeftLeg
      LeftLeg LeftFoot
      LeftFoot LeftToeBase
      RightUpLeg RightLeg
      RightLeg RightFoot
      RightFoot RightToeBase
   end

# File created by Blade
# Date/Time:  Thu Sep 25 17:54:10 2014
# Frame Rate: 120.000 fps
#------------------------------------------------------
:FULLY-SPECIFIED
:DEGREES
592
root -0.555721 32.546336 -5.033592 29.341645 1.464388 0.572778
Spine -33.203406 1.484754 -4.529777
Head 28.075091 -14.238009 0.968898
LeftShoulder -25.770627 51.526439 30.637558
LeftArm 124.382244 -50.096331 -159.453640
LeftForeArm -58.760126 -0.000000 131.272554
LeftHand -13.344123 -0.000000 -9.309230
LeftHandThumb1 -26.253704 0.000000 33.147579
RightShoulder -85.870282 50.083169 -158.924275
RightArm 57.189154 -0.886428 61.857668
RightForeArm 25.765797 -0.000000 132.122371
RightHand 6.783646 -0.000000 9.946931
RightHandThumb1 -24.326973 -0.000000 -32.862282
LeftUpLeg -20.760425 4.774508 0.195497
LeftLeg -2.327412 -0.000000 0.000000
LeftFoot -4.500812 -2.504881 -3.107157
LeftToeBase 2.502841 -0.000000 -0.000000
RightUpLeg -20.639769 -6.717522 4.559813
RightLeg -2.619719 -0.000000 0.000000
RightFoot -8.705344 -1.968952 10.799174
RightToeBase 15.271752 -0.000000 -0.000000
593
root -0.561166 32.545925 -5.034044 29.338532 1.469567 0.582035
Spine -33.206999 1.491859 -4.522518
Head 28.046537 -14.230842 0.992634
LeftShoulder -25.789082 51.511249 30.617380
LeftArm 124.371786 -50.131701 -159.447775
LeftForeArm -58.750958 -0.000000 131.279692
LeftHand -13.342145 -0.000000 -9.320494
LeftHandThumb1 -26.253704 0.000000 33.147579
RightShoulder -85.864923 50.070099 -158.927462
RightArm 57.189835 -0.864784 61.896694
RightForeArm 25.743525 -0.000000 132.127215
RightHand 6.682306 -0.000000 10.053454
RightHandThumb1 -24.326973 -0.000000 -32.862282
LeftUpLeg -20.761551 4.792151 0.190698
LeftLeg -2.326464 -0.000000 0.000000
LeftFoot -4.486178 -2.536635 -3.125874
LeftToeBase 2.489003 -0.000000 -0.000000
RightUpLeg -20.629004 -6.719487 4.560076
RightLeg -2.633912 -0.000000 0.000000
RightFoot -8.712330 -1.962475 10.798238
RightToeBase 15.267603 -0.000000 -0.000000
594
root -0.566848 32.545552 -5.035163 29.334460 1.488170 0.591639
Spine -33.216790 1.500420 -4.515442
Head 28.034554 -14.207024 1.037895
LeftShoulder -25.781819 51.537281 30.604741
LeftArm 124.399922 -50.145595 -159.480562
LeftForeArm -58.734935 -0.000000 131.292515
LeftHand -13.359785 -0.000000 -9.256559
LeftHandThumb1 -26.253704 0.000000 33.147579
RightShoulder -85.863005 50.072390 -158.930373
RightArm 57.186396 -0.860412 61.903835
RightForeArm 25.683412 -0.000000 132.124472
RightHand 6.701199 -0.000000 10.053301
RightHandThumb1 -24.326973 -0.000000 -32.862282
LeftUpLeg -20.760999 4.769568 0.204972
LeftLeg -2.326736 -0.000000 0.000000
LeftFoot -4.487320 -2.533633 -3.136548
LeftToeBase 2.497456 -0.000000 -0.000000
RightUpLeg -20.618531 -6.731052 4.567464
RightLeg -2.646940 -0.000000 0.000000
RightFoot -8.710763 -1.965009 10.796241
RightToeBase 15.274175 -0.000000 -0.000000
595
root -0.572299 32.545377 -5.035993 29.332537 1.495726 0.599641
Spine -33.227263 1.512592 -4.511425
Head 28.039268 -14.196828 1.035722
LeftShoulder -25.784407 51.539150 30.600209
LeftArm 124.405764 -50.149069 -159.490679
LeftForeArm -58.743317 -0.000000 131.299580
LeftHand -13.329516 -0.000000 -9.302473
LeftHandThumb1 -26.253704 0.000000 33.147579
RightShoulder -85.860138 50.075423 -158.927128
RightArm 57.186719 -0.857940 61.906074
RightForeArm 25.664933 -0.000000 132.139852
RightHand 6.703401 -0.000000 9.985392
RightHandThumb1 -24.326973 -0.000000 -32.862282
LeftUpLeg -20.763145 4.776397 0.205226
LeftLeg -2.325285 -0.000000 0.000000
LeftFoot -4.476308 -2.547057 -3.127020
LeftToeBase 2.473243 -0.000000 -0.000000
RightUpLeg -20.610192 -6.724073 4.568627
RightLeg -2.658491 -0.000000 0.000000
RightFoot -8.743033 -1.993979 10.715117
RightToeBase 15.388105 -0.000000 -0.000000
596
root -0.578196 32.544799 -5.036889 29.332120 1.499525 0.605347
Spine -33.245672 1.534312 -4.505958
Head 28.039011 -14.160273 1.049081
LeftShoulder -25.779283 51.549744 30.593820
LeftArm 124.412181 -50.139526 -159.491255
LeftForeArm -58.714511 -0.000000 131.293481
LeftHand -13.341548 -0.000000 -9.345016
LeftHandThumb1 -26.253704 0.000000 33.147579
RightShoulder -85.852907 50.085822 -158.922540
RightArm 57.190420 -0.852993 61.914952
RightForeArm 25.650714 -0.000000 132.141294
RightHand 6.748697 -0.000000 9.931086
RightHandThumb1 -24.326973 -0.000000 -32.862282
LeftUpLeg -20.761173 4.768886 0.213319
LeftLeg -2.331888 -0.000000 0.000000
LeftFoot -4.479407 -2.538817 -3.155651
LeftToeBase 2.533633 -0.000000 -0.000000
RightUpLeg -20.602515 -6.711080 4.567765
RightLeg -2.674688 -0.000000 0.000000
RightFoot -8.742698 -2.011339 10.707769
RightToeBase 15.384150 -0.000000 -0.000000
597
root -0.583894 32.544704 -5.038791 29.332985 1.505602 0.607114
Spine -33.246929 1.551293 -4.507221
Head 28.033535 -14.214878 1.038114
LeftShoulder -25.792178 51.498180 30.604383
LeftArm 124.377842 -50.164465 -159.452335
LeftForeArm -58.732104 0.000000 131.286754
LeftHand -13.336107 -0.000000 -9.375566
LeftHandThumb1 -26.253704 0.000000 33.147579
RightShoulder -85.904279 50.076454 -158.956563
RightArm 57.174687 -0.863551 61.908586
RightForeArm 25.575286 -0.000000 132.149175
RightHand 6.767831 -0.000000 9.680717
RightHandThumb1 -24.326973 -0.000000 -32.862282
LeftUpLeg -20.768978 4.779975 0.217184
LeftLeg -2.328508 -0.000000 0.000000
LeftFoot -4.468654 -2.543216 -3.131625
LeftToeBase 2.464486 -0.000000 -0.000000
RightUpLeg -20.585435 -6.657109 4.552200
RightLeg -2.710071 -0.000000 0.000000
RightFoot -8.729191 -2.041409 10.744810
RightToeBase 15.378233 -0.000000 -0.000000
